<svg width="16" height="16" viewBox="0 0 16 16" fill="none" xmlns="http://www.w3.org/2000/svg">
<path d="M4 8.09668V12.9248H8.82812L15.7529 6H16V13C15.9999 14.1045 15.1045 15 14 15H2C0.895512 15 0.00013198 14.1045 0 13V6H6.09668L4 8.09668Z" fill="#2A3546"/>
<path d="M13.5664 1.42871C14.1213 0.857762 15.0291 0.857762 15.584 1.42871C16.1385 1.98284 16.1386 2.87252 15.584 3.44336L8.01758 11H6V8.98535L13.5664 1.42871Z" fill="#2A3546"/>
<path d="M8.09766 4H0V3C0.000114991 1.89553 0.895501 1 2 1H11.0977L8.09766 4Z" fill="#2A3546"/>
</svg>
