<svg width="24" height="24" viewBox="0 0 24 24" fill="none" xmlns="http://www.w3.org/2000/svg">
<path fill-rule="evenodd" clip-rule="evenodd" d="M19.5 2C20.8641 2 22 3.13602 22 4.5V14.6133H20.125C20.0303 14.1967 19.8596 13.8178 19.6514 13.458L20.9775 12.1328L19.3672 10.5225L18.042 11.8486C17.6823 11.6404 17.3032 11.4701 16.8867 11.3564V9.5H14.6133V11.3564C14.1968 11.4701 13.8177 11.6404 13.458 11.8486L12.1328 10.5225L10.5225 12.1328L11.8486 13.458C11.6404 13.8177 11.4701 14.1968 11.3564 14.6133H9.5V16.8867H11.3564C11.4701 17.3032 11.6404 17.6823 11.8486 18.042L10.5225 19.3672L12.1328 20.9775L13.458 19.6514C13.8177 19.8596 14.1968 20.0299 14.6133 20.1436V22H4.5C3.12488 22 2 20.875 2 19.5V4.5C2 3.12503 3.12488 2 4.5 2H19.5ZM4.5 7H19.5V4.5H4.5V7Z" fill="#2A3546"/>
<path d="M22 19.5C22 20.8807 20.8817 22 19.501 22H16.8867V20.1436C17.3032 20.0299 17.6823 19.8596 18.042 19.6514L19.3672 20.9775L20.9775 19.3672L19.6514 18.042C19.8596 17.6822 20.0303 17.3033 20.125 16.8867H22V19.5Z" fill="#2A3546"/>
<path d="M15.75 13.4775C17 13.4775 18.0225 14.5 18.0225 15.75C18.0225 17 17 18.0225 15.75 18.0225C14.5 18.0225 13.4775 17 13.4775 15.75C13.4775 14.5 14.5 13.4775 15.75 13.4775Z" fill="#2A3546"/>
</svg>
