<svg width="16" height="16" viewBox="0 0 16 16" fill="none" xmlns="http://www.w3.org/2000/svg">
<path d="M9.50415 1.83733C10.3696 2.35991 11.4119 2.50334 12.3866 2.23485L14.1565 1.74741L13.6812 3.52235C13.4198 4.49863 13.571 5.54013 14.0994 6.40171L15 7.86957L13.1153 8.05581C12.1589 8.15035 11.2775 8.61508 10.6588 9.35052L9.39457 10.8525L8.78621 9.28345C8.40873 8.31035 7.63596 7.5429 6.66029 7.17211L5.08758 6.57418L6.58096 5.29979C7.31179 4.67592 7.76939 3.79082 7.85709 2.83393L8.03035 0.947144L9.50415 1.83733Z" fill="#2A3546"/>
<path d="M5.37966 8.28697C5.37966 8.28697 6.20171 8.26479 6.95768 9.01941C7.7133 9.77368 7.695 10.6024 7.695 10.6024L3.56609 14.8086C3.24844 15.1311 2.72923 15.1347 2.40731 14.8165L1.24289 13.6656C0.92185 13.3482 0.918706 12.8302 1.23557 12.5086L5.37966 8.28697Z" fill="#2A3546"/>
</svg>
