<svg width="16" height="16" viewBox="0 0 16 16" fill="none" xmlns="http://www.w3.org/2000/svg">
<path fill-rule="evenodd" clip-rule="evenodd" d="M14 0C15.0913 0 16 0.908813 16 2V10.0908H14.5C14.4243 9.75759 14.2877 9.45479 14.1211 9.16699L15.1816 8.10645L13.8936 6.81836L12.833 7.87891C12.5452 7.71229 12.2424 7.57526 11.9092 7.48438V6H10.0908V7.48438C9.75756 7.57526 9.45481 7.71229 9.16699 7.87891L8.10645 6.81836L6.81836 8.10645L7.87891 9.16699C7.71229 9.45481 7.57526 9.75756 7.48438 10.0908H6V11.9092H7.48438C7.57526 12.2424 7.71229 12.5452 7.87891 12.833L6.81836 13.8936L8.10645 15.1816L9.16699 14.1211C9.45481 14.2877 9.75756 14.4247 10.0908 14.5156V16H2C0.899902 16 0 15.1 0 14V2C0 0.900024 0.899902 0 2 0H14ZM2 4H14V2H2V4Z" fill="#2A3546"/>
<path d="M16 14C16 15.1045 15.1055 15.9999 14.001 16H11.9092V14.5156C12.2424 14.4247 12.5452 14.2877 12.833 14.1211L13.8936 15.1816L15.1816 13.8936L14.1211 12.833C14.2877 12.5452 14.4243 12.2424 14.5 11.9092H16V14Z" fill="#2A3546"/>
<path d="M11 9.18164C12 9.18164 12.8184 10 12.8184 11C12.8184 12 12 12.8184 11 12.8184C10 12.8184 9.18164 12 9.18164 11C9.18164 10 10 9.18164 11 9.18164Z" fill="#2A3546"/>
</svg>
