<svg width="24" height="24" viewBox="0 0 24 24" fill="none" xmlns="http://www.w3.org/2000/svg">
<path d="M14.8058 2.67229C16.0175 3.4039 17.4766 3.6047 18.8412 3.22881L21.319 2.5464L20.6537 5.03131C20.2877 6.3981 20.4995 7.85621 21.2392 9.06241L22.5 11.1174L19.8614 11.3782C18.5225 11.5105 17.2885 12.1611 16.4223 13.1908L14.6524 15.2935L13.8007 13.0969C13.2722 11.7345 12.1903 10.6601 10.8244 10.141L8.62261 9.30388L10.7133 7.51974C11.7365 6.64632 12.3771 5.40718 12.4999 4.06753L12.7425 1.42603L14.8058 2.67229Z" fill="#2A3546"/>
<path d="M9.03152 11.7018C9.03152 11.7018 10.1824 11.6707 11.2407 12.7272C12.2986 13.7832 12.273 14.9434 12.273 14.9434L5.09253 22.2321C4.64782 22.6836 3.92093 22.6886 3.47023 22.2432L1.84005 20.6319C1.39059 20.1875 1.38619 19.4623 1.8298 19.012L9.03152 11.7018Z" fill="#2A3546"/>
</svg>
