<svg width="16" height="16" viewBox="0 0 16 16" fill="none" xmlns="http://www.w3.org/2000/svg">
<g clip-path="url(#clip0_1536_203)">
<path d="M14 2.55566C14 2.24884 13.7512 2 13.4443 2H6.66699V14H13.4443C13.7512 14 14 13.7512 14 13.4443V2.55566ZM8.84863 4.95996C9.23916 4.56944 9.87217 4.56944 10.2627 4.95996L12.5957 7.29297C12.9862 7.68349 12.9862 8.31651 12.5957 8.70703L10.2627 11.04C9.87217 11.4306 9.23916 11.4306 8.84863 11.04C8.45822 10.6495 8.45814 10.0165 8.84863 9.62598L10.4746 8L8.84863 6.37402C8.45814 5.98354 8.45822 5.35049 8.84863 4.95996ZM2 13.4443C2 13.7512 2.24884 14 2.55566 14H4.66699V2H2.55566C2.24884 2 2 2.24884 2 2.55566V13.4443ZM16 13.4443C16 14.8557 14.8557 16 13.4443 16H2.55566C1.14427 16 0 14.8557 0 13.4443V2.55566C0 1.14427 1.14427 0 2.55566 0H13.4443C14.8557 0 16 1.14427 16 2.55566V13.4443Z" fill="#2A3546"/>
</g>
<defs>
<clipPath id="clip0_1536_203">
<rect width="16" height="16" fill="white"/>
</clipPath>
</defs>
</svg>
