<svg width="24" height="24" viewBox="0 0 24 24" fill="none" xmlns="http://www.w3.org/2000/svg">
<path d="M11.3 22C11.2323 22 11.1639 21.9902 11.097 21.9693C10.8016 21.8778 10.6 21.6002 10.6 21.2857V14.143H5.69998C5.44168 14.143 5.20435 13.998 5.08265 13.7656C4.96094 13.5333 4.97457 13.2516 5.11748 13.0326L12.1174 2.31849C12.2882 2.05608 12.6083 1.939 12.9028 2.03117C13.1984 2.12218 13.4 2.39987 13.4 2.71458V9.8573H18.3C18.5583 9.8573 18.7956 10.0023 18.9173 10.2346C19.0391 10.467 19.0254 10.7487 18.8825 10.9677L11.8825 21.6818C11.7504 21.8839 11.5296 22 11.3 22Z" fill="#2A3546"/>
</svg>
