<svg width="128" height="128" viewBox="0 0 128 128" fill="none" xmlns="http://www.w3.org/2000/svg">
<rect width="128" height="128" fill="#F4C80F"/>
<path d="M28.5307 39.4895C32.8904 37.3967 37.8263 36.97 42.6007 37.0016C47.8088 36.9984 53.2576 37.8235 57.6584 40.7855C60.0203 42.3124 61.7585 44.5663 63.1769 46.9562C66.0041 43.2039 69.6799 39.8277 74.2675 38.4399C78.013 37.1533 82.0339 36.8751 85.9693 37.0522C91.931 37.3082 97.9338 39.48 102.297 43.6243C107.831 48.7865 110.199 56.5979 109.987 64.014C110.123 70.0393 108.619 76.2226 105.048 81.1477C101.606 86.0634 96.0627 89.2847 90.2086 90.3816C85.8648 91.2573 81.3532 91.1213 77.0125 90.2994C72.8207 89.3764 68.8789 87.4259 65.5546 84.7199C64.9562 84.1857 64.3483 83.6577 63.6803 83.2152C63.6454 85.311 63.6613 87.4132 63.6739 89.5123C59.8715 89.5629 56.0691 89.4965 52.2666 89.5471C51.7442 87.7199 51.5986 85.8074 51.4973 83.917C50.0979 85.2984 48.8061 86.8284 47.0838 87.8242C41.4419 91.2731 34.3721 91.6366 28.0432 90.2299C24.6302 89.4807 21.4578 87.3974 19.7639 84.2995C17.6902 80.7684 17.7471 76.4565 18.4089 72.543C18.9851 68.9455 21.157 65.6579 24.2407 63.7169C28.0147 61.2859 32.5643 60.6158 36.9113 59.9108C39.5866 59.4366 42.2809 59.0731 44.9404 58.5294C46.9097 58.0204 49.1671 57.4956 50.3385 55.6622C51.3042 53.9045 51.491 51.6032 50.4873 49.8234C49.4362 48.1669 47.6094 47.1585 45.7351 46.7254C42.6038 45.9604 39.1908 45.992 36.1704 47.1807C33.4223 48.3819 31.9659 51.2712 31.3169 54.0499C27.4543 54.0215 23.5885 54.0468 19.7259 54.0373C19.9286 51.5684 20.3655 49.09 21.3058 46.7855C22.6925 43.5674 25.3362 40.9341 28.5307 39.4895ZM74.2834 51.0405C71.5701 54.0341 70.6994 58.2038 70.5569 62.1236C70.4018 66.6157 70.6297 71.4049 73.0296 75.3501C74.8659 78.4228 78.2979 80.3353 81.8312 80.6293C84.725 80.8127 87.7866 80.7968 90.4176 79.4154C93.5361 77.9423 95.6099 74.8822 96.5059 71.6294C97.671 67.4092 97.6932 62.9424 97.0473 58.6368C96.4742 55.6716 95.3978 52.6432 93.1277 50.541C90.5347 47.9425 86.6816 47.1554 83.123 47.3577C79.8525 47.383 76.4933 48.5653 74.2834 51.0405ZM48.4199 65.1521C43.5505 67.0614 37.9402 66.8654 33.4539 69.7706C30.804 71.465 30.0536 74.9739 30.728 77.8822C31.0731 79.7947 32.5896 81.4038 34.4481 81.9507C36.9968 82.76 39.805 82.5924 42.3442 81.8116C46.3524 80.6293 49.7116 77.3796 50.9242 73.3744C51.5764 71.2595 51.2535 69.0182 51.4213 66.8465C51.5543 65.4872 51.5638 64.1184 51.5163 62.7559C50.5855 63.6726 49.68 64.6874 48.4199 65.1521Z" fill="#141517"/>
</svg>
