<svg width="128" height="128" viewBox="0 0 128 128" fill="none" xmlns="http://www.w3.org/2000/svg">
<rect width="128" height="128" fill="#F0F2F4"/>
<path d="M42.166 26.9019C51.821 22.6623 63.1394 23.5191 72.6561 27.7145C77.1492 29.8094 81.6755 32.1365 85.2401 35.652C84.7393 35.3746 84.2766 35.0797 83.8346 34.7758C82.6105 33.9342 81.5453 33.0236 80.2717 32.225C73.5293 27.9411 65.6153 25.0889 57.541 25.4869C51.4009 25.8075 45.0564 28.1235 41.0497 32.9656C37.0098 37.5756 35.6668 44.076 36.5566 50.0402C37.6564 58.1546 41.7737 65.5062 46.6923 71.9181C52.451 79.3913 60.0832 85.6871 69.1136 88.7052C75.9223 91.0046 83.665 91.292 90.319 88.3127C94.7237 86.4057 98.4154 82.8405 100.311 78.4129C102.444 73.6979 102.676 68.3307 101.836 63.2786C101.35 60.1942 100.064 57.2361 98.5 54.5C98.4558 54.0246 98.8962 52.9366 98.8576 52.4612C100.692 54.9375 101.472 57.9887 102.417 60.8796C104.815 70.199 104.81 80.5908 100.151 89.2358C97.6417 94.2824 92.922 97.7703 88.0034 100.258C74.3086 106.52 57.447 104.763 45.1228 96.1839C36.96 90.7559 31.2456 82.343 27.5207 73.405C24.1826 65.0418 22.8507 55.6174 25.1498 46.8066C27.4212 38.0565 33.7988 30.4119 42.166 26.9019Z" fill="#007ECC"/>
<path d="M79.8793 53.6386C86.1022 43.7996 92.1207 33.8335 98.3546 24C93.9389 36.4314 89.1419 48.7191 84.6874 61.1394C84.1514 62.6374 83.5655 64.1132 82.941 65.578C75.4747 60.9017 68.1188 56.0541 60.6911 51.317C59.7682 50.7422 58.8784 50.1175 58.0383 49.4266C63.482 50.2391 68.8262 51.6708 74.2257 52.7431C76.0936 53.0361 77.9948 53.9371 79.8793 53.6386Z" fill="#F79147"/>
<path d="M80.2717 32.225C73.5293 27.9411 65.6153 25.0889 57.541 25.4869C51.4009 25.8075 45.0564 28.1235 41.0497 32.9656C37.0098 37.5756 35.6668 44.076 36.5566 50.0402C37.6564 58.1546 41.7737 65.5062 46.6923 71.9181C52.451 79.3913 60.0832 85.6871 69.1136 88.7052C75.9223 91.0046 83.665 91.292 90.319 88.3127C94.7237 86.4057 98.4154 82.8405 100.311 78.4129C102.444 73.6979 102.676 68.3307 101.836 63.2786C101.35 60.1942 100.064 57.2361 98.5 54.5C99.2516 57.8442 101.024 60.946 101.311 64.3841C101.936 69.7237 101.134 75.4336 98.0728 79.9661C96.0887 77.5783 94.3976 74.9637 92.3417 72.6422C93.4802 75.8758 95.2376 78.8496 96.4314 82.0666C90.949 87.8318 82.2613 89.175 74.7451 87.5997C65.1731 85.4716 56.723 79.4576 50.8262 71.7136C55.6232 68.6292 60.7021 66.0036 65.4329 62.8308C59.3039 63.964 53.2965 65.7217 47.14 66.7333C43.8295 61.5927 41.2929 55.844 40.6076 49.7251C39.8559 44.9991 41.315 40.1625 43.7632 36.144C44.6806 34.3586 47.8169 32.5511 49.4694 32.0481C52.3708 30.5971 55.2336 29.7984 59.0027 29.1461C60.8651 28.9029 62.1099 28.9637 64 29.1461C66.4704 30.937 69.2075 36.1495 71.5287 38.1173C70.65 34.7289 68.8649 31.6888 67.6822 28.4165C70.3681 29.0245 72.949 29.9974 75.4691 31.1029C77.6411 32.0425 81.7998 34.3282 81.7998 34.3282C81.7998 34.3282 82.6779 34.2599 83.8346 34.7758C82.6105 33.9342 81.5453 33.0236 80.2717 32.225Z" fill="#007ECC"/>
</svg>
