<svg width="128" height="128" viewBox="0 0 128 128" fill="none" xmlns="http://www.w3.org/2000/svg">
<rect width="128" height="128" fill="#F0F2F4"/>
<path d="M56.9949 86.1671C50.6299 76.5246 43.7713 69.2231 39.4435 59.2769C33.9516 46.686 38.292 32.5006 49.6934 25.5028C61.5757 18.214 76.5204 20.8967 85.2644 31.8806C92.1989 40.612 92.9582 52.431 86.4286 62.8328C81.3922 70.8555 75.5333 78.3595 70.0414 86.1039C67.9155 88.5967 65.7896 91.0896 63.4359 93.8609C61.1708 91.1782 59.0829 88.6727 56.9949 86.1671ZM64.3597 28.3627C53.8567 28.1982 45.2645 36.1956 44.8595 46.5088C44.4546 56.5816 52.895 65.5281 63.1449 65.8824C74.1034 66.2494 82.8854 57.9862 82.9614 47.2554C83.012 36.7271 74.9259 28.5145 64.3597 28.3627Z" fill="#EE287C"/>
<path d="M53.5024 42.1684L64.828 53.4939L72.7622 45.5471L69.2316 42.0166L64.7647 46.1418L57.1342 38.5493L53.5024 42.1684Z" fill="#EE287C"/>
<path d="M66.1692 106.452C73.8883 105.883 84.6443 103.719 84.6443 97.5054C84.6443 89.9509 69.8136 89.7864 69.8136 89.7864L69.5732 90.2799L69.6744 90.128C69.7377 90.0268 69.8009 89.9382 69.8009 89.9382L69.6744 90.128C69.3581 90.6216 68.6368 92.0135 70.2945 92.5577C72.3065 93.2157 75.9003 94.6329 75.9003 98.2014C75.9003 101.226 68.7253 101.783 64.0306 101.884L64.018 101.909L64.0053 101.884C59.3106 101.783 52.1357 101.226 52.1357 98.2014C52.1357 94.6329 55.7295 93.2157 57.7415 92.5577C59.3992 92.0135 58.6779 90.6216 58.3615 90.128L58.235 89.9382C58.235 89.9382 58.2856 90.0142 58.3615 90.128L58.4628 90.2799L58.2223 89.7864C58.2223 89.7864 43.3916 89.9382 43.3916 97.5054C43.3916 103.731 54.1477 105.883 61.8668 106.452L64.0306 106.579L66.1692 106.452Z" fill="#A3A3A3"/>
</svg>
