<svg width="128" height="128" viewBox="0 0 128 128" fill="none" xmlns="http://www.w3.org/2000/svg">
<rect width="128" height="128" fill="#F03822"/>
<path d="M50.4158 25.0486C51.3359 24.6145 52.2265 23.9337 53.2947 24.0052C69.0091 24.0175 84.7235 24.0052 100.438 24.0101C101.235 23.9189 101.637 24.7304 102.167 25.1744C102.759 25.9021 103.758 26.425 103.973 27.3772C103.99 42.266 103.976 57.1572 103.98 72.0485C103.926 73.1684 104.124 74.3228 103.855 75.4205C103.277 76.8092 102.641 78.2423 101.533 79.2981C99.5893 81.2245 97.6577 83.1609 95.7335 85.1071C95.3215 85.4845 94.8898 85.9951 94.2706 85.9457C93.2123 86.0913 92.4599 85.1539 91.9171 84.3868C91.8135 71.8265 91.964 59.2588 91.8431 46.6986C91.4287 46.5974 91.029 46.4519 90.6171 46.3606C90.9205 46.4766 91.2313 46.5826 91.5422 46.6813C90.881 46.7035 90.1533 46.6838 89.7216 47.2782C71.0345 66.0027 52.3844 84.7617 33.6825 103.466C32.9523 104.221 31.5437 104.167 30.8702 103.355C28.7807 101.259 26.6887 99.1646 24.5943 97.0704C23.832 96.4143 23.7827 95.0009 24.5647 94.3472C42.8028 76.1629 60.9373 57.8775 79.1359 39.6538C79.7823 38.9902 80.4952 38.3859 81.0823 37.6681C81.4524 37.2488 81.255 36.6518 81.297 36.1511C70.657 36.0697 60.0122 36.1388 49.3698 36.1166C47.4925 36.0771 45.6102 36.1906 43.7378 36.0697C42.8595 35.5739 41.8851 34.7229 42.0923 33.6006C42.0183 32.9494 42.566 32.5226 42.9607 32.0984C44.579 30.5074 46.1726 28.8966 47.7761 27.2933C48.5976 26.4842 49.355 25.5617 50.4158 25.0486Z" fill="white"/>
</svg>
