<svg width="128" height="128" viewBox="0 0 128 128" fill="none" xmlns="http://www.w3.org/2000/svg">
<rect width="128" height="128" fill="#E75E94"/>
<path d="M40.6018 54C41.7604 54 42.9145 54 44.0731 54C44.0824 57.0713 44.0685 60.1427 44.087 63.214C45.292 62.0906 46.497 60.9626 47.6974 59.8347C49.287 59.8347 50.8721 59.8347 52.4617 59.8392C50.8304 61.2978 49.1897 62.7429 47.5491 64.1925C49.2778 65.8913 51.0296 67.5719 52.7676 69.2616C51.1316 69.2707 49.5002 69.2661 47.8688 69.2616C46.6129 67.9887 45.3523 66.7203 44.087 65.4564C44.0777 66.7248 44.0777 67.9977 44.0731 69.2661C42.9145 69.2661 41.7604 69.2661 40.6018 69.2661C40.6018 64.1789 40.5971 59.0872 40.6018 54Z" fill="#FFFEFE"/>
<path d="M22.7632 54.6931C24.1165 53.6104 26.3643 55.0872 25.8035 56.7044C25.4883 58.0362 23.6206 58.5481 22.6102 57.6421C21.6694 56.9037 21.7482 55.3318 22.7632 54.6931Z" fill="#FFFEFE"/>
<path d="M12.4141 60.7271C13.9203 59.5402 16.0476 59.0781 17.7902 60.0702C21.104 61.6965 21.3496 66.8879 18.2166 68.8177C16.4601 70.0317 14.1799 69.6195 12.4419 68.6048C12.4929 70.3941 12.4883 72.1835 12.4836 73.9774C11.325 73.9864 10.1663 73.9909 9.00766 74C8.99376 69.2752 9.00303 64.5549 9.00303 59.8347C10.1617 59.8347 11.3203 59.8347 12.479 59.8392C12.4604 60.0612 12.428 60.5051 12.4141 60.7271ZM13.4152 62.7248C12.0109 63.4405 12.0433 65.8143 13.5171 66.4439C14.7917 67.0646 16.7011 66.4213 16.8216 64.8947C17.2109 63.0872 14.94 61.7826 13.4152 62.7248Z" fill="#FFFEFE"/>
<path d="M31.3835 60.863C33.1632 59.0147 37.047 58.9105 38.0157 61.6104C38.5765 64.1155 38.1825 66.7203 38.2845 69.2661C37.1258 69.2661 35.9672 69.2661 34.8085 69.2661C34.7622 67.2231 34.9939 65.1574 34.6556 63.1325C34.3312 61.769 31.9073 61.9502 31.6106 63.2639C31.2399 65.239 31.4809 67.2684 31.4299 69.2661C30.2712 69.2661 29.108 69.2661 27.9447 69.2661C27.9447 66.1223 27.9447 62.9785 27.9493 59.8347C29.108 59.8347 30.2666 59.8347 31.4253 59.8392C31.4114 60.0929 31.3928 60.6093 31.3835 60.863Z" fill="#FFFEFE"/>
<path d="M63.659 60.7135C65.2579 59.4088 67.6447 59.0736 69.392 60.3058C72.4184 62.1721 72.3998 67.1416 69.2807 68.9037C67.5474 70.0317 65.3691 69.5697 63.6729 68.6319C63.7053 70.4168 63.7053 72.2016 63.6914 73.9864C62.5327 73.9909 61.3695 73.9909 60.2062 73.9955C60.1876 69.2752 60.2015 64.5549 60.1969 59.8347C61.3602 59.8347 62.5235 59.8347 63.6868 59.8347C63.6775 60.0566 63.6636 60.496 63.659 60.7135ZM64.4932 62.8018C63.4319 63.4813 63.2604 65.0985 64.1085 66.0045C65.2486 67.2367 67.8533 66.7157 68.0248 64.9264C68.4882 63.0374 65.9994 61.7146 64.4932 62.8018Z" fill="#FFFEFE"/>
<path d="M74.6291 60.487C76.2141 59.1869 78.448 59.3998 80.2138 60.2061C81.479 59.8347 82.8045 59.812 84.1161 59.7939C84.1207 62.9513 84.1161 66.1042 84.1161 69.2616C82.9621 69.2661 81.8081 69.2707 80.6587 69.2752C80.6587 69.0804 80.6541 68.6863 80.6541 68.487C79.1246 69.5425 77.0715 70.0181 75.3613 69.0623C72.1217 67.504 71.7463 62.5663 74.6291 60.487ZM77.3681 62.6931C75.8526 63.3998 75.899 65.8686 77.4794 66.4757C78.9115 67.1506 80.9321 66.1586 80.7421 64.4734C80.7885 62.8381 78.7353 61.923 77.3681 62.6931Z" fill="#FFFEFE"/>
<path d="M88.2177 60.1925C89.9464 59.1189 92.1989 59.4088 93.7515 60.641C93.7422 60.4417 93.7283 60.0385 93.719 59.8347C94.8823 59.8347 96.0502 59.8347 97.2181 59.8392C97.1579 63.06 97.3572 66.2945 97.1208 69.5108C97.0235 71.1869 96.0456 72.8811 94.3864 73.4972C91.2905 74.6387 86.9247 73.8052 85.7521 70.4168C87.0035 70.3805 88.2548 70.3715 89.5108 70.4032C90.396 70.9196 91.411 71.667 92.4862 71.1416C93.668 70.7565 93.5475 69.2843 93.9183 68.3465C92.1154 69.4519 89.6776 69.9411 87.8284 68.6727C84.8669 66.7565 85.1728 61.8822 88.2177 60.1925ZM90.3543 62.6704C88.8202 63.4994 89.1122 66.1721 90.8919 66.5119C92.2591 66.9604 93.9647 65.9728 93.8302 64.4734C93.9322 62.761 91.74 61.7962 90.3543 62.6704Z" fill="#FFFEFE"/>
<path d="M99.6467 61.4292C101.505 59.137 105.338 58.9151 107.674 60.6048C109.138 61.6421 109.338 63.4994 109.597 65.1031C107.025 65.1393 104.453 65.0759 101.885 65.1755C102.363 65.9185 102.627 67.0646 103.707 67.1552C104.643 67.4405 105.449 66.7656 106.232 66.3851C107.322 66.3579 108.415 66.3579 109.504 66.376C108.105 69.923 103.053 70.5391 100.245 68.2786C98.2887 66.6116 98.1543 63.427 99.6467 61.4292ZM101.945 63.1325C103.456 63.2005 104.967 63.1914 106.483 63.1325C105.829 62.5164 105.194 61.5832 104.156 61.692C103.169 61.6648 102.562 62.5255 101.945 63.1325Z" fill="#FFFEFE"/>
<path d="M112.489 60.3465C114.232 59.2503 116.563 59.2956 118.426 60.0566L118.537 60.3601C118.403 61.0125 117.977 61.5515 117.671 62.1314C116.48 61.9094 115.145 61.6014 114.19 62.5753C115.539 63.1642 117.105 63.3318 118.301 64.2288C119.562 65.5697 119.029 67.9841 117.411 68.8358C115.228 70.1178 112.549 69.5379 110.353 68.6002C110.765 67.8256 111.178 67.0464 111.595 66.2718C112.98 66.8018 114.709 67.6716 115.919 66.2809C114.598 65.6602 113.101 65.4247 111.85 64.6591C110.626 63.4723 111.062 61.2118 112.489 60.3465Z" fill="#FFFEFE"/>
<path d="M22.1746 59.8392C23.3286 59.8347 24.4873 59.8347 25.6459 59.8301C25.6505 62.9785 25.6505 66.1223 25.6459 69.2661C24.4873 69.2661 23.3332 69.2661 22.1746 69.2661C22.1699 66.1223 22.1699 62.9785 22.1746 59.8392Z" fill="#FFFEFE"/>
<path fill-rule="evenodd" clip-rule="evenodd" d="M16.5491 52.1833C16.734 52.1833 16.9134 52.218 17.087 52.2869C17.2605 52.3559 17.4161 52.4641 17.554 52.6116C17.692 52.7591 17.801 52.9507 17.8807 53.1864C17.9603 53.4205 18 53.7051 18 54.0401V54.2948H15.6718C15.6767 54.52 15.7137 54.7133 15.7852 54.8746C15.8635 55.0477 15.9725 55.18 16.1119 55.2714C16.2513 55.3611 16.4141 55.4059 16.6004 55.4059C16.7213 55.4059 16.8315 55.387 16.931 55.3485C17.0305 55.3085 17.1167 55.249 17.1892 55.1705C17.2617 55.092 17.3175 54.9949 17.356 54.8795L17.9599 55.0019C17.9115 55.2023 17.8244 55.3781 17.6992 55.5288C17.5755 55.6778 17.4199 55.7943 17.2322 55.8776C17.0459 55.9594 16.833 56 16.5941 56C16.2712 56 15.9931 55.9223 15.7598 55.7669C15.5279 55.6097 15.3485 55.3893 15.2219 55.1055C15.0967 54.8201 15.0341 54.4856 15.0341 54.1024C15.0341 53.7241 15.0967 53.3906 15.2219 53.1021C15.3484 52.8135 15.5248 52.5883 15.751 52.4264C15.9786 52.2644 16.2447 52.1833 16.5491 52.1833ZM16.5535 52.7774C16.3742 52.7774 16.2177 52.8274 16.084 52.9268C15.9517 53.0246 15.8494 53.1528 15.7769 53.3115C15.7145 53.4493 15.6809 53.5975 15.6732 53.7563H17.375C17.375 53.5671 17.3406 53.3995 17.2723 53.2536C17.204 53.1062 17.108 52.9897 16.9843 52.9048C16.862 52.8199 16.7184 52.7775 16.5535 52.7774Z" fill="white"/>
<path d="M10.1179 52.2313H10.7903V52.8089H10.1179V54.8409C10.1179 54.9804 10.1367 55.0857 10.1737 55.1562C10.2106 55.225 10.2582 55.2722 10.3165 55.2978C10.3762 55.3219 10.4409 55.3342 10.5106 55.3342C10.5618 55.3342 10.6067 55.3301 10.6451 55.3221C10.6834 55.3141 10.7132 55.3076 10.7346 55.3028L10.85 55.8969C10.813 55.913 10.7603 55.9289 10.692 55.9449C10.6237 55.9625 10.5382 55.9719 10.4358 55.9735C10.268 55.9767 10.1114 55.9432 9.96631 55.8727C9.82131 55.8021 9.7038 55.6933 9.61421 55.5459C9.52462 55.3984 9.48026 55.213 9.48022 54.9903V52.8089H9V52.2313H9.48022V51.3467H10.1179V52.2313Z" fill="white"/>
<path d="M12.1958 52.8326H12.2364C12.3132 52.6339 12.4307 52.4761 12.5885 52.3591C12.7464 52.2421 12.9529 52.1833 13.2076 52.1833C13.4323 52.1833 13.6285 52.2356 13.7963 52.3398C13.9656 52.444 14.0966 52.5994 14.189 52.8061C14.2829 53.0113 14.3299 53.2682 14.3299 53.5761V55.9256H13.6917V53.6626C13.6917 53.3918 13.63 53.1817 13.5064 53.0326C13.3826 52.882 13.2104 52.8061 12.9899 52.8061C12.8392 52.8061 12.704 52.8426 12.5845 52.9147C12.4665 52.9868 12.3731 53.0927 12.3048 53.2321C12.238 53.37 12.2046 53.5366 12.2046 53.732V55.9256H11.5664V51H12.1958V52.8326Z" fill="white"/>
</svg>
