<svg width="128" height="128" viewBox="0 0 128 128" fill="none" xmlns="http://www.w3.org/2000/svg">
<rect width="128" height="128" fill="#396798"/>
<path d="M47.3777 15.0351C57.0621 14.9556 66.7587 15.0322 76.4509 15.0599C76.4404 22.4797 76.4491 29.9017 76.3606 37.3228C81.3877 37.2836 86.4075 37.3113 91.4372 37.4272C91.2705 43.2435 91.3945 49.0717 91.2663 54.8922C86.2787 54.926 81.2779 54.8132 76.2948 54.8958C76.4085 63.9449 76.0754 72.9844 76.3355 82.0299C76.4017 84.7267 77.2232 88.0855 80.1838 88.9654C83.7941 89.4219 87.4546 89.0614 91.0907 89.1917C91.1979 96.692 91.1203 104.192 91.2084 111.69C80.3457 111.952 68.999 113.797 58.5301 110C51.3242 107.434 48.7787 99.3518 47.9091 92.5048C46.5599 79.9654 47.4323 67.3169 47.2747 54.7413C43.5171 54.7431 39.7616 54.7257 36.0103 54.6701C35.9846 48.8331 36.008 42.9917 36.0699 37.1544C39.804 37.1889 43.553 37.1765 47.2924 37.1631C47.3757 29.7898 47.4013 22.4103 47.3777 15.0351Z" fill="#FEE54B"/>
<path d="M104.17 19.8768C106.708 18.484 110.162 18.7047 112.271 20.8685C113.721 22.3758 114.017 24.651 113.999 26.7112C111.152 26.6374 108.309 26.491 105.462 26.4501C105.741 27.2307 105.908 28.1879 106.648 28.6386C107.648 29.2323 108.986 28.9491 109.687 27.9717C111.116 27.9399 112.547 27.9521 113.983 27.9831C112.038 32.9667 104.378 33.4275 101.918 28.723C100.495 25.7734 101.267 21.4609 104.17 19.8768ZM105.524 24.1213C106.94 24.15 108.355 24.1459 109.777 24.1205C109.516 23.1559 108.973 22.0639 107.889 22.0663C106.673 21.8599 105.791 22.966 105.524 24.1213Z" fill="white"/>
<path d="M90.978 20.3366C92.6772 19.0221 94.9487 18.8395 96.9541 19.2576C98.716 19.5818 100.299 20.8928 100.771 22.7796C99.4758 22.8086 98.1809 22.8341 96.8893 22.827C96.358 21.864 95.2182 21.0679 94.2127 21.7802C93.618 22.0143 93.6773 22.9118 94.2503 23.1277C96.031 23.9067 98.1796 23.6551 99.7617 24.9769C101.348 26.3283 101.167 29.2565 99.518 30.4784C97.0555 32.4091 93.4809 32.3606 90.9387 30.6285C89.9898 30.0078 89.4641 28.9214 89.2683 27.7855C90.6503 27.7774 92.0357 27.7698 93.4192 27.7801C93.8853 29.6554 97.0197 29.7295 97.1272 27.625C95.0815 26.6949 92.6579 26.8599 90.8094 25.4343C89.2423 24.2347 89.4735 21.4839 90.978 20.3366Z" fill="white"/>
<path d="M84.0205 27.1457C85.4967 27.1522 86.9767 27.1555 88.4597 27.1627C88.4563 28.7464 88.4528 30.3301 88.4426 31.913C86.9596 31.9057 85.48 31.8988 84 31.8955C84.0034 30.3119 84.0069 28.7282 84.0205 27.1457Z" fill="white"/>
</svg>
