<svg width="128" height="128" viewBox="0 0 128 128" fill="none" xmlns="http://www.w3.org/2000/svg">
<rect width="128" height="128" fill="white"/>
<path d="M31.01 53.4757C30.9921 51.9849 31.0041 50.4922 31.0021 49.0015C39.9714 49.0015 48.9408 49.0015 57.9101 49.0015C57.9061 50.4922 57.9181 51.9849 57.9002 53.4757C54.3893 53.4737 50.8764 53.4776 47.3636 53.4737C47.3476 61.8427 47.3616 70.2098 47.3576 78.5789C45.414 78.5967 43.4704 78.5848 41.5267 78.5848C41.5267 70.2158 41.5327 61.8447 41.5227 53.4737C38.0178 53.4757 34.5149 53.4717 31.01 53.4757Z" fill="#232323"/>
<path d="M69.9841 49.0074C71.6131 48.9975 73.2441 48.9975 74.873 49.0074C75.0104 49.3514 75.1578 49.6935 75.3111 50.0335C75.6377 50.769 75.9623 51.5045 76.2631 52.2518C76.6454 53.0783 76.9999 53.9185 77.3404 54.7647C77.7526 55.6861 78.1171 56.6272 78.5512 57.5386C78.7244 57.9459 78.8937 58.3551 79.061 58.7644C79.284 59.2508 79.4712 59.7529 79.6385 60.2611L79.756 60.1938C79.8755 60.5814 80.0049 60.9649 80.1523 61.3445C80.1722 61.4552 80.212 61.6767 80.2319 61.7874C80.2738 61.7834 80.3554 61.7775 80.3972 61.7735C80.6422 62.5288 81.0046 63.2386 81.2535 63.9918L81.3531 63.9958C81.6578 64.9507 82.1338 65.8385 82.4424 66.7894L82.6177 66.7539C82.6376 66.8863 82.6794 67.1532 82.6993 67.2877C82.8208 67.0049 82.9443 66.7222 83.0717 66.4415C83.2768 65.9175 83.46 65.3817 83.6751 64.8618C84.0316 64.0472 84.4 63.2346 84.623 62.3726C84.6589 62.3766 84.7345 62.3845 84.7724 62.3864C84.9237 61.8566 85.089 61.3307 85.2384 60.8008L85.3857 60.8502C85.5192 60.3738 85.6705 59.9012 85.8219 59.4287L85.9533 59.4623C86.0608 59.0886 86.1743 58.715 86.3098 58.3472C86.5447 57.8233 86.7399 57.2816 86.9749 56.7576C87.1442 56.3345 87.2856 55.9035 87.421 55.4706C87.4548 55.4765 87.5225 55.4883 87.5564 55.4923C87.7117 54.9664 87.877 54.4444 88.0303 53.9185C88.0642 53.9245 88.1339 53.9363 88.1678 53.9423C88.2992 53.4875 88.4505 53.0387 88.6178 52.5939C89.1555 51.4175 89.6016 50.2016 90.0954 49.0054C92.063 48.9975 94.0325 48.9995 96 49.0035C95.4125 50.4764 94.8271 51.9493 94.1998 53.4065C94.0345 53.8276 93.8732 54.2507 93.7258 54.6797C93.6959 54.6817 93.6362 54.6896 93.6083 54.6916C93.449 55.2135 93.2698 55.7276 93.0985 56.2456H92.987C92.8536 56.6884 92.7082 57.1293 92.531 57.5603C92.3438 57.9459 92.1924 58.3472 92.0271 58.7446C91.8101 59.2587 91.6109 59.7786 91.3839 60.2887C91.2106 60.7197 91.0553 61.1547 90.9099 61.5936C90.8781 61.5956 90.8183 61.5996 90.7865 61.6015C90.6491 62.0642 90.5057 62.5229 90.3683 62.9855C90.3284 62.9835 90.2468 62.9815 90.207 62.9796C90.0636 63.5134 89.8903 64.0373 89.725 64.5632C89.6912 64.5573 89.6235 64.5474 89.5896 64.5415C89.4562 64.9923 89.3029 65.4391 89.1336 65.878C88.9544 66.2556 88.7891 66.6392 88.6098 67.0168C88.4485 67.4676 88.2932 67.9203 88.1598 68.381C88.1239 68.3731 88.0542 68.3593 88.0204 68.3533C87.8611 68.8753 87.6938 69.3953 87.5405 69.9192C87.5026 69.9133 87.4309 69.9034 87.3951 69.8994C87.2577 70.37 87.1063 70.8366 86.957 71.3032L86.8275 71.2636C86.714 71.6472 86.5985 72.0307 86.4591 72.4064C86.2221 72.9105 86.031 73.4345 85.7999 73.9406C85.6287 74.3696 85.4813 74.8086 85.3479 75.2514L85.2085 75.202C85.0691 75.6864 84.9197 76.1668 84.7823 76.6532C84.7465 76.6512 84.6748 76.6473 84.639 76.6453C84.4199 77.45 84.0595 78.2052 83.7587 78.9802C83.1036 78.9901 82.4484 78.9921 81.7952 79C81.6399 78.6145 81.4885 78.2309 81.3451 77.8434L81.2416 77.8394C81.1341 77.5271 81.0245 77.2167 80.909 76.9102C80.5048 75.9731 80.0408 75.0557 79.756 74.0751C79.7261 74.077 79.6664 74.081 79.6365 74.083C79.3259 73.1656 78.9196 72.2858 78.5552 71.3902C78.3998 71.0659 78.2565 70.7357 78.1011 70.4115C77.8801 69.8974 77.6849 69.3735 77.4539 68.8634C77.43 68.8061 77.3842 68.6894 77.3623 68.6321C77.193 68.2367 77.0337 67.8413 76.8605 67.4498C76.3407 66.2616 75.8389 65.0654 75.3151 63.8772C75.0443 63.29 74.8312 62.6791 74.5823 62.08C74.2119 61.2832 73.8415 60.4825 73.5766 59.6442L73.4751 59.6383C73.2042 58.8909 72.8577 58.1713 72.6048 57.416L72.3997 57.4397C72.3937 57.3112 72.3798 57.0582 72.3738 56.9296C72.2085 57.4773 72.0293 58.019 71.7843 58.5351C71.6569 58.8138 71.5374 59.0946 71.4219 59.3773C71.2009 59.8478 70.9977 60.3263 70.8245 60.8166C70.7986 60.8206 70.7508 60.8285 70.7269 60.8324C70.3923 61.8329 69.9025 62.774 69.5918 63.7843L69.4843 63.7328C69.3767 64.0512 69.2712 64.3695 69.1557 64.6838C68.9286 65.1386 68.7355 65.6071 68.5284 66.0698C68.3531 66.4929 68.1819 66.918 68.0285 67.349L67.923 67.3529C67.6561 68.2742 67.212 69.1283 66.8456 70.0121C66.6166 70.5321 66.4135 71.0639 66.1606 71.572C66.0431 71.8686 65.9356 72.1671 65.832 72.4677L65.7205 72.4578C65.5651 72.9402 65.4018 73.4187 65.2585 73.905C65.2226 73.8932 65.1509 73.8734 65.1151 73.8615C64.9677 74.3281 64.8144 74.7927 64.667 75.2593C64.6312 75.2554 64.5615 75.2435 64.5276 75.2376C64.3862 75.6824 64.2289 76.1233 64.0576 76.5583C63.6833 77.3491 63.3188 78.1459 63.042 78.9763C62.4028 78.9901 61.7655 78.9921 61.1283 78.9921C60.9709 78.6263 60.8076 78.2645 60.6364 77.9067C60.503 77.5369 60.3914 77.1613 60.2859 76.7837C60.252 76.7916 60.1823 76.8054 60.1485 76.8133C59.9832 76.2795 59.8139 75.7477 59.6705 75.2099L59.5292 75.2613C59.3898 74.7888 59.2424 74.3202 59.103 73.8497C59.0652 73.8516 58.9915 73.8576 58.9536 73.8595C58.8083 73.3297 58.641 72.8077 58.4757 72.2838L58.3542 72.2858C58.2427 71.9121 58.1292 71.5404 57.9858 71.1766C57.7528 70.71 57.5915 70.2118 57.4521 69.7096C57.4202 69.7116 57.3565 69.7175 57.3247 69.7195C57.1773 69.2588 57.0299 68.7982 56.8965 68.3336C56.8587 68.3355 56.783 68.3395 56.7451 68.3415C56.5938 67.8116 56.4265 67.2857 56.2772 66.7558L56.1597 66.7677C55.8968 65.9195 55.5403 65.105 55.2058 64.2845C54.9827 63.7585 54.7916 63.2208 54.5546 62.7008C54.3853 62.2658 54.236 61.821 54.1045 61.3722C54.0766 61.3761 54.0209 61.3801 53.993 61.3841C53.8277 60.8641 53.6485 60.3481 53.4892 59.8261C53.4613 59.8221 53.4095 59.8123 53.3836 59.8063C53.2343 59.3793 53.077 58.9562 52.9097 58.5351C52.7882 58.2464 52.6747 57.9558 52.5612 57.6651C54.5546 57.6315 56.546 57.6651 58.5374 57.6454C58.6848 58.0526 58.8122 58.4659 58.9337 58.883C58.9656 58.8712 59.0273 58.8474 59.0592 58.8356C59.2125 59.3793 59.3818 59.919 59.5371 60.4627L59.6606 60.3896C59.808 60.9432 59.9792 61.4908 60.1425 62.0404L60.254 61.9554C60.3875 62.4675 60.5448 62.9756 60.7658 63.458C60.9072 63.8238 61.0227 64.1994 61.1322 64.5771L61.2537 64.5711C61.411 65.105 61.5704 65.6368 61.7078 66.1765C61.7456 66.1706 61.8193 66.1587 61.8571 66.1528C61.9667 66.5482 62.0841 66.9397 62.1977 67.3312C62.2156 67.1295 62.2335 66.9278 62.2514 66.7282L62.4565 66.7835C62.5979 66.3367 62.7533 65.8958 62.9305 65.4608C63.1456 65.0041 63.3387 64.5375 63.5598 64.0848C63.6972 63.717 63.8147 63.3434 63.9302 62.9697L64.0437 62.9934C64.2229 62.4932 64.4161 61.997 64.6551 61.5205C64.8223 61.0835 64.9817 60.6426 65.125 60.1958L65.2545 60.2215C65.3919 59.7866 65.5512 59.3575 65.7205 58.9325C65.9355 58.4718 66.1287 58.0012 66.3338 57.5366C66.6764 56.7319 67.0667 55.9431 67.3156 55.1008C67.3495 55.1028 67.4211 55.1048 67.455 55.1068C67.6024 54.6323 67.7617 54.1617 67.9051 53.6852C67.9369 53.6892 67.9987 53.6951 68.0285 53.6991C68.1799 53.2384 68.3452 52.7817 68.5025 52.323L68.618 52.321C68.7614 51.8841 68.9227 51.4511 69.1099 51.03C69.2313 50.7552 69.3469 50.4784 69.4643 50.2016C69.6535 49.8101 69.8228 49.4088 69.9841 49.0074Z" fill="#232323"/>
<path d="M63.5 115C56.7369 115 50.0401 113.668 43.7918 111.08C37.5435 108.492 31.8662 104.698 27.084 99.916C22.3018 95.1338 18.5083 89.4565 15.9202 83.2082C13.3321 76.9599 12 70.2631 12 63.5H17.15C17.15 69.5868 18.3489 75.6139 20.6782 81.2374C23.0075 86.8608 26.4216 91.9704 30.7256 96.2744C35.0296 100.578 40.1392 103.993 45.7626 106.322C51.3861 108.651 57.4132 109.85 63.5 109.85V115Z" fill="#FDDB00"/>
<path d="M12 63.5C12 49.8413 17.4259 36.7421 27.084 27.084C36.7421 17.4259 49.8414 12 63.5 12V17.15C51.2072 17.15 39.4179 22.0333 30.7256 30.7256C22.0333 39.4179 17.15 51.2072 17.15 63.5H12Z" fill="#0073F6"/>
<path d="M63.5 12C77.1586 12 90.2579 17.4259 99.916 27.084C109.574 36.7421 115 49.8413 115 63.5H109.85C109.85 51.2072 104.967 39.4179 96.2744 30.7256C87.5821 22.0333 75.7928 17.15 63.5 17.15V12Z" fill="#A978FF"/>
<path d="M115 63.5C115 77.1586 109.574 90.2579 99.916 99.916C90.2579 109.574 77.1587 115 63.5 115V109.85C75.7928 109.85 87.5821 104.967 96.2744 96.2744C104.967 87.5821 109.85 75.7928 109.85 63.5H115Z" fill="#01E19D"/>
</svg>
