<svg width="48" height="48" viewBox="0 0 48 48" fill="none" xmlns="http://www.w3.org/2000/svg">
<path d="M2.18164 23.9998C2.18164 36.0497 11.95 45.818 23.9998 45.818C36.0497 45.818 45.818 36.0497 45.818 23.9998C45.818 11.95 36.0497 2.18164 23.9998 2.18164C11.95 2.18164 2.18164 11.95 2.18164 23.9998Z" fill="#FF4747"/>
<circle cx="24.0003" cy="24.0003" r="13.6364" stroke="#FEEDEC" stroke-width="3.27273"/>
<path d="M30.546 37.6363H17.4551C17.4551 34.0213 20.3856 31.0908 24.0005 31.0908C27.6155 31.0908 30.546 34.0213 30.546 37.6363Z" fill="#FEEDEC"/>
<rect x="22.9092" y="9.27246" width="2.18182" height="5.45455" rx="1.09091" fill="#FEEDEC"/>
<path d="M20.9313 16.9218L21.0874 33.5556C21.1035 35.2687 22.654 36.5574 24.3411 36.2599C26.0283 35.9624 27.0445 34.2211 26.4737 32.6058L20.9313 16.9218Z" fill="white"/>
<rect x="34.4424" y="13.7881" width="2.18182" height="5.45455" rx="1.09091" transform="rotate(45 34.4424 13.7881)" fill="#FEEDEC"/>
<rect x="12.3125" y="15.3301" width="2.18182" height="5.45455" rx="1.09091" transform="rotate(-45 12.3125 15.3301)" fill="#FEEDEC"/>
<rect x="12.0166" y="15.3301" width="2.18182" height="5.45455" rx="1.09091" transform="rotate(-45 12.0166 15.3301)" fill="#FEEDEC"/>
<rect x="9.27344" y="26.0645" width="2.18182" height="5.45455" rx="1.09091" transform="rotate(-90 9.27344 26.0645)" fill="#FEEDEC"/>
<rect x="33.2734" y="26.0645" width="2.18182" height="5.45455" rx="1.09091" transform="rotate(-90 33.2734 26.0645)" fill="#FEEDEC"/>
</svg>
