<svg width="48" height="48" viewBox="0 0 48 48" fill="none" xmlns="http://www.w3.org/2000/svg">
<path d="M2.18164 23.9998C2.18164 36.0497 11.95 45.818 23.9998 45.818C36.0497 45.818 45.818 36.0497 45.818 23.9998C45.818 11.95 36.0497 2.18164 23.9998 2.18164C11.95 2.18164 2.18164 11.95 2.18164 23.9998Z" fill="#21C445"/>
<path d="M11.4551 33.2727H16.94C17.2787 33.2727 17.6128 33.1939 17.9158 33.0424L23.0248 30.4879C23.639 30.1807 24.362 30.1807 24.9763 30.4879L30.0853 33.0424C30.3883 33.1939 30.7223 33.2727 31.061 33.2727H36.546V33.8182C36.546 35.0232 35.5692 36 34.3642 36H13.6369C12.4319 36 11.4551 35.0232 11.4551 33.8182V33.2727Z" fill="#97E4A7"/>
<path fill-rule="evenodd" clip-rule="evenodd" d="M13.6802 23.1562L11.7642 22.1205C11.914 21.8733 12.0003 21.5834 12.0003 21.2733C12.0003 20.3695 11.2676 19.6369 10.3639 19.6369C9.46016 19.6369 8.72754 20.3695 8.72754 21.2733C8.72754 22.1056 9.34901 22.7928 10.1533 22.8962L11.4548 30.0005H16.9398C17.2785 30.0005 17.6125 29.9217 17.9155 29.7702L23.0245 27.2157C23.6388 26.9086 24.3618 26.9086 24.976 27.2157L30.085 29.7702C30.388 29.9217 30.7221 30.0005 31.0608 30.0005H36.5457L37.8473 22.8962C38.6515 22.7928 39.273 22.1056 39.273 21.2733C39.273 20.3695 38.5404 19.6369 37.6366 19.6369C36.7329 19.6369 36.0003 20.3695 36.0003 21.2733C36.0003 21.5834 36.0865 21.8733 36.2364 22.1205L34.3203 23.1562C33.7105 23.4858 32.9518 23.1704 32.7554 22.5056L31.8524 19.4494C32.3728 19.1755 32.7275 18.6294 32.7275 18.0005C32.7275 17.0968 31.9949 16.3642 31.0912 16.3642C30.1874 16.3642 29.4548 17.0968 29.4548 18.0005C29.4548 18.4076 29.6034 18.7799 29.8494 19.0662L28.3849 20.2945C27.7899 20.7935 26.8788 20.5288 26.644 19.7886L24.9436 14.4287C25.3629 14.1324 25.6366 13.6439 25.6366 13.0914C25.6366 12.1877 24.904 11.4551 24.0003 11.4551C23.0965 11.4551 22.3639 12.1877 22.3639 13.0914C22.3639 13.6439 22.6377 14.1324 23.0569 14.4287L21.3565 19.7886C21.1217 20.5288 20.2106 20.7935 19.6157 20.2945L18.1512 19.0662C18.3971 18.7799 18.5457 18.4076 18.5457 18.0005C18.5457 17.0968 17.8131 16.3642 16.9094 16.3642C16.0056 16.3642 15.273 17.0968 15.273 18.0005C15.273 18.6294 15.6278 19.1755 16.1481 19.4494L15.2452 22.5056C15.0487 23.1704 14.2901 23.4858 13.6802 23.1562Z" fill="white"/>
</svg>
