<svg width="48" height="48" viewBox="0 0 48 48" fill="none" xmlns="http://www.w3.org/2000/svg">
<path d="M2.18164 23.9998C2.18164 36.0497 11.95 45.818 23.9998 45.818C36.0497 45.818 45.818 36.0497 45.818 23.9998C45.818 11.95 36.0497 2.18164 23.9998 2.18164C11.95 2.18164 2.18164 11.95 2.18164 23.9998Z" fill="#FFC247"/>
<circle cx="24.0003" cy="24.0003" r="13.6364" stroke="#FFE4AD" stroke-width="3.27273"/>
<path d="M30.546 37.6363H17.4551C17.4551 34.0213 20.3856 31.0908 24.0005 31.0908C27.6155 31.0908 30.546 34.0213 30.546 37.6363Z" fill="#FFE4AD"/>
<rect x="22.3643" y="10.9092" width="3.27273" height="5.45455" rx="1.63636" fill="#FFE4AD"/>
<path d="M27.0687 16.9218L26.9126 33.5556C26.8965 35.2687 25.346 36.5574 23.6589 36.2599C21.9717 35.9624 20.9555 34.2211 21.5263 32.6058L27.0687 16.9218Z" fill="white"/>
<rect x="33.3115" y="14.8789" width="3.27273" height="5.45455" rx="1.63636" transform="rotate(45 33.3115 14.8789)" fill="#FFE4AD"/>
<rect x="12.375" y="17.1924" width="3.27273" height="5.45455" rx="1.63636" transform="rotate(-45 12.375 17.1924)" fill="#FFE4AD"/>
<rect x="10.3643" y="27.7012" width="3.27273" height="5.45455" rx="1.63636" transform="rotate(-90 10.3643 27.7012)" fill="#FFE4AD"/>
<rect x="32.1816" y="27.7012" width="3.27273" height="5.45455" rx="1.63636" transform="rotate(-90 32.1816 27.7012)" fill="#FFE4AD"/>
</svg>
